# xmcd CD database file generated by Grip 3.2.0
# 
# Track frame offsets:
#       150
#       23447
#       46152
#       73915
#       87840
#       112782
#       131557
#       149035
#       160777
#       177372
# 
# Disc length: 2601 seconds
# 
# Revision: 2
# Processed by: cddbd v1.5.1PL0 Copyright (c) Steve Scherf et al.
# Submitted via: Grip 3.2.0
# 
DISCID=800a270a
DTITLE=Albert Collins - Iceman
DYEAR=1991
DGENRE=Blues
TTITLE0=Mr. Collins, Mr. Collins
TTITLE1=Iceman
TTITLE2=Don't Mistake Kindness For Weakness
TTITLE3=Travellin' South
TTITLE4=Put The Shoe On The Other Foot
TTITLE5=I'm Beginning To Wonder
TTITLE6=Head Rag
TTITLE7=The Hawk
TTITLE8=Blues For Gabe
TTITLE9=Mr. Collins, Mr. Collins (Faded Version)
EXTD=
EXTT0=
EXTT1=
EXTT2=
EXTT3=
EXTT4=
EXTT5=
EXTT6=
EXTT7=
EXTT8=
EXTT9=
PLAYORDER=
